<svg width="23" height="24" viewBox="0 0 23 24" fill="none" xmlns="http://www.w3.org/2000/svg">
<path d="M15.6091 1.92121C16.27 1.26006 17.1578 0.875057 18.0921 0.844283C19.0265 0.813509 19.9376 1.13927 20.6407 1.75549L20.8175 1.92121L21.6853 2.78907C22.3461 3.45 22.7309 4.33745 22.7617 5.27155C22.7924 6.20565 22.4669 7.1165 21.851 7.81948L21.6853 7.99625L7.92228 21.7605C7.72768 21.9551 7.49194 22.1036 7.2324 22.1951L7.03354 22.2528L1.56613 23.5147C1.37456 23.5592 1.17509 23.5571 0.984519 23.5084C0.793946 23.4598 0.617849 23.3661 0.47106 23.2352C0.32427 23.1043 0.211085 22.94 0.141037 22.7562C0.0709891 22.5724 0.0461283 22.3745 0.0685487 22.1791L0.0930993 22.0404L1.35377 16.5718C1.41605 16.3035 1.5377 16.0527 1.70975 15.8377L1.84601 15.6843L15.6091 1.92121ZM14.7412 6.26052L3.70571 17.296L2.92501 20.6815L6.31053 19.8996L17.346 8.86411L14.7412 6.26052ZM19.0817 3.65693C18.8704 3.44558 18.5891 3.31862 18.2908 3.29986C17.9925 3.2811 17.6976 3.37184 17.4614 3.55505L17.346 3.65693L16.4769 4.5248L19.0817 7.12839L19.9496 6.26052C20.1609 6.04915 20.2879 5.76792 20.3067 5.4696C20.3254 5.17128 20.2347 4.87637 20.0515 4.64019L19.9496 4.5248L19.0817 3.65693Z" fill="#5BC0EB"/>
</svg>
