<svg width="31" height="31" viewBox="0 0 31 31" fill="none" xmlns="http://www.w3.org/2000/svg">
<g clip-path="url(#clip0_226_756)">
<g filter="url(#filter0_d_226_756)">
<path d="M4.21777 13.7906H14.2471V3.76123H4.21777V13.7906ZM6.72512 6.26857H11.7398V11.2833H6.72512V6.26857ZM4.21777 26.3273H14.2471V16.2979H4.21777V26.3273ZM6.72512 18.8053H11.7398V23.82H6.72512V18.8053ZM16.7545 3.76123V13.7906H26.7839V3.76123H16.7545ZM24.2765 11.2833H19.2618V6.26857H24.2765V11.2833ZM16.767 16.2979H19.2744V18.8053H16.767V16.2979ZM19.2744 18.8053H21.7817V21.3126H19.2744V18.8053ZM16.767 21.3126H19.2744V23.82H16.767V21.3126ZM21.7817 21.3126H24.289V23.82H21.7817V21.3126ZM24.289 23.82H26.7964V26.3273H24.289V23.82ZM19.2744 23.82H21.7817V26.3273H19.2744V23.82ZM21.7817 16.2979H24.289V18.8053H21.7817V16.2979ZM24.289 18.8053H26.7964V21.3126H24.289V18.8053Z" fill="#5BC0EB"/>
</g>
</g>
<defs>
<filter id="filter0_d_226_756" x="-3.18223" y="-3.63877" width="37.3791" height="37.3659" filterUnits="userSpaceOnUse" color-interpolation-filters="sRGB">
<feFlood flood-opacity="0" result="BackgroundImageFix"/>
<feColorMatrix in="SourceAlpha" type="matrix" values="0 0 0 0 0 0 0 0 0 0 0 0 0 0 0 0 0 0 127 0" result="hardAlpha"/>
<feOffset/>
<feGaussianBlur stdDeviation="3.7"/>
<feComposite in2="hardAlpha" operator="out"/>
<feColorMatrix type="matrix" values="0 0 0 0 0 0 0 0 0 0 0 0 0 0 0 0 0 0 0.1 0"/>
<feBlend mode="normal" in2="BackgroundImageFix" result="effect1_dropShadow_226_756"/>
<feBlend mode="normal" in="SourceGraphic" in2="effect1_dropShadow_226_756" result="shape"/>
</filter>
<clipPath id="clip0_226_756">
<rect width="30.0881" height="30.0881" fill="white" transform="translate(0.457031)"/>
</clipPath>
</defs>
</svg>
