<svg width="33" height="29" viewBox="0 0 33 29" fill="none" xmlns="http://www.w3.org/2000/svg">
<path d="M1.89014 1.98828H4.39338L5.4662 6.27956M5.4662 6.27956L9.04227 20.5838H27.6378L31.2139 6.27956H5.4662Z" stroke="#F5F5F5" stroke-width="2" stroke-linecap="round" stroke-linejoin="round"/>
<path d="M9.04212 27.7361C10.2271 27.7361 11.1878 26.7755 11.1878 25.5905C11.1878 24.4055 10.2271 23.4448 9.04212 23.4448C7.85712 23.4448 6.89648 24.4055 6.89648 25.5905C6.89648 26.7755 7.85712 27.7361 9.04212 27.7361Z" stroke="#F5F5F5" stroke-width="2" stroke-linecap="round" stroke-linejoin="round"/>
<path d="M27.6378 27.7361C28.8228 27.7361 29.7835 26.7755 29.7835 25.5905C29.7835 24.4055 28.8228 23.4448 27.6378 23.4448C26.4528 23.4448 25.4922 24.4055 25.4922 25.5905C25.4922 26.7755 26.4528 27.7361 27.6378 27.7361Z" stroke="#F5F5F5" stroke-width="2" stroke-linecap="round" stroke-linejoin="round"/>
</svg>
