<svg width="31" height="31" viewBox="0 0 31 31" fill="none" xmlns="http://www.w3.org/2000/svg">
<g clip-path="url(#clip0_69_1276)">
<g filter="url(#filter0_d_69_1276)">
<path d="M3.76123 14.4727H13.7906V4.44336H3.76123V14.4727ZM6.26857 6.9507H11.2833V11.9654H6.26857V6.9507ZM3.76123 27.0094H13.7906V16.9801H3.76123V27.0094ZM6.26857 19.4874H11.2833V24.5021H6.26857V19.4874ZM16.2979 4.44336V14.4727H26.3273V4.44336H16.2979ZM23.82 11.9654H18.8053V6.9507H23.82V11.9654ZM16.3105 16.9801H18.8178V19.4874H16.3105V16.9801ZM18.8178 19.4874H21.3252V21.9948H18.8178V19.4874ZM16.3105 21.9948H18.8178V24.5021H16.3105V21.9948ZM21.3252 21.9948H23.8325V24.5021H21.3252V21.9948ZM23.8325 24.5021H26.3398V27.0094H23.8325V24.5021ZM18.8178 24.5021H21.3252V27.0094H18.8178V24.5021ZM21.3252 16.9801H23.8325V19.4874H21.3252V16.9801ZM23.8325 19.4874H26.3398V21.9948H23.8325V19.4874Z" fill="#0C6186"/>
</g>
</g>
<defs>
<filter id="filter0_d_69_1276" x="-3.63877" y="-2.95664" width="37.3786" height="37.3659" filterUnits="userSpaceOnUse" color-interpolation-filters="sRGB">
<feFlood flood-opacity="0" result="BackgroundImageFix"/>
<feColorMatrix in="SourceAlpha" type="matrix" values="0 0 0 0 0 0 0 0 0 0 0 0 0 0 0 0 0 0 127 0" result="hardAlpha"/>
<feOffset/>
<feGaussianBlur stdDeviation="3.7"/>
<feComposite in2="hardAlpha" operator="out"/>
<feColorMatrix type="matrix" values="0 0 0 0 0 0 0 0 0 0 0 0 0 0 0 0 0 0 0.1 0"/>
<feBlend mode="normal" in2="BackgroundImageFix" result="effect1_dropShadow_69_1276"/>
<feBlend mode="normal" in="SourceGraphic" in2="effect1_dropShadow_69_1276" result="shape"/>
</filter>
<clipPath id="clip0_69_1276">
<rect width="30.0881" height="30.0881" fill="white" transform="translate(0 0.682129)"/>
</clipPath>
</defs>
</svg>
