<svg width="30" height="27" viewBox="0 0 30 27" fill="none" xmlns="http://www.w3.org/2000/svg">
<path d="M14.9999 10.1464C22.7313 10.1464 28.9989 8.26617 28.9989 5.94675C28.9989 3.62733 22.7313 1.74707 14.9999 1.74707C7.26852 1.74707 1.00098 3.62733 1.00098 5.94675C1.00098 8.26617 7.26852 10.1464 14.9999 10.1464Z" stroke="white" stroke-width="2" stroke-linecap="round" stroke-linejoin="round"/>
<path d="M15 21.3456C16.8619 21.3456 17.902 22.4068 18.3864 23.3279C18.4988 23.5471 18.5284 23.7995 18.4694 24.0388C18.4105 24.278 18.2672 24.4879 18.0658 24.6298C17.1582 25.2343 16.0905 25.5532 15 25.5453C13.8409 25.5453 12.7742 25.2023 11.9343 24.6284C11.7329 24.4865 11.5895 24.2766 11.5306 24.0374C11.4717 23.7981 11.5012 23.5457 11.6137 23.3265C12.0981 22.4096 13.1382 21.3456 15 21.3456ZM15 21.3456V10.1465" stroke="white" stroke-width="2" stroke-linecap="round" stroke-linejoin="round"/>
</svg>
